<?xml version="1.0" encoding="utf-8"?>
<!-- Generator: Adobe Illustrator 19.1.0, SVG Export Plug-In . SVG Version: 6.00 Build 0)  -->
<svg version="1.1" id="Layer_1" xmlns="http://www.w3.org/2000/svg" xmlns:xlink="http://www.w3.org/1999/xlink" x="0px" y="0px"
	 viewBox="-120.3 3109.5 22.7 19.9" style="enable-background:new -120.3 3109.5 22.7 19.9;" xml:space="preserve">
<path d="M-111.6,3113.5c-0.7,0-1.2,0.5-1.2,1.2c0,0.7,0.5,1.2,1.2,1.2s1.2-0.5,1.2-1.2S-110.9,3113.5-111.6,3113.5z M-111.6,3114.6
	c-0.4,0-0.7-0.2-0.7-0.4c0-0.2,0.3-0.4,0.7-0.4c0.4,0,0.7,0.2,0.7,0.4C-110.9,3114.4-111.2,3114.6-111.6,3114.6z M-98.1,3119.3
	c-1.2-1.1-7-1.8-8.8-2c0.1-0.2,0.2-0.4,0.2-0.7c0.3-0.1,0.5-0.2,0.8-0.3c0,0.1,0.2,0.5,0.3,0.7c3.7,0.1,3.9-2.7,4-3.5
	c0.1-0.8,0.1-1.5,1.4-2.8c-1.9-0.6-4.6,0.9-5.5,2.9c-0.3-0.1-0.7-0.2-1-0.3c-0.2-1-1.5-3.7-4.8-3.7c-2.1,0-4.3,0.9-5.9,2.4
	c-0.9,0.8-1.6,1.8-2.1,2.9c-0.5,1.2-0.8,2.5-0.8,4c0,4.9,3.4,9.3,5.3,9.3c0.8,0,1.5-0.6,1.7-1.2c0.1,0.4,0.6,1.6,0.7,1.9
	c0.2,0.4,1.2,0.8,1.6,0.4c0.5,0.3,1.5,0.5,2.1-0.3c1.1,0.2,2-0.4,2-1.2c0.5,0,0.8-0.8,0.7-1.3c-0.1-0.4-1-1.9-1.3-2.5
	c0.7,0.6,2.4,0.7,2.6,0c1.1,0.9,2.8,0.4,3-0.3c1.3,0.3,2.9-0.4,2.6-1.3C-97.2,3122.1-97.5,3119.9-98.1,3119.3L-98.1,3119.3z
	 M-103.7,3115.5c-0.6-0.2-1.3-0.4-1.8-0.4c-0.7,0-1.2,0.4-1.8,0.4c-0.1,0-0.5,0-0.7-0.1c0.2,0.2,0.4,0.3,0.8,0.3
	c0.3,0,0.8-0.1,1.2-0.3c0,0.1,0,0.2,0,0.3c-0.8,0.2-1.6,0.7-1.8,0.8c-0.5-1.1-0.1-2.2,0.3-2.7
	C-105.7,3113.8-104.2,3115.1-103.7,3115.5L-103.7,3115.5z M-102.9,3115.4l-0.3-0.3c-0.3-0.3-0.6-0.5-0.9-0.7c0.5-0.9,1-1.9,1.8-2.5
	c-0.8,0.3-1.6,1.3-2.1,2.3c-0.2-0.2-0.5-0.3-0.7-0.4c0.7-1.4,2.2-2.6,3.9-2.7C-102.4,3112.1-102,3114.2-102.9,3115.4L-102.9,3115.4z
	 M-105.2,3116.4c-0.1-0.3-0.3-0.7-0.2-1c0.2,0,0.6,0.1,0.7,0.1c0,0.1,0,0.4,0,0.4c0-0.1,0.2-0.3,0.2-0.4c0.4,0.1,0.9,0.2,1.2,0.4
	C-103.8,3116.1-104.4,3116.3-105.2,3116.4L-105.2,3116.4z M-107.8,3113.2c-1.5,1.5-0.9,3.4-0.4,4.2c-0.8,1.3-2.3,2.1-4,2.5
	c2,0,3.1-0.5,3.8-1c0.4-0.3,0.7-0.6,0.8-0.8c2.9,0.2,7.5,1.1,8,1.4c0.2,0.1,0.4,0.4,0.4,0.6c-2.2-0.3-6.1-0.6-7.2-0.7
	c0.7,0.1,6.1,1.1,7,1.4c-0.3,0.5-0.9,0.8-1.9,0.6c0.5,0.7-0.5,1.6-1.9,1.1c0.3,0.7-0.9,1.3-2.4,0.6c0,0.7-1.8,0.8-2.5,0
	c0,0.1,0.1,0.3,0.1,0.3c-0.2,2-1.9,3.3-3.6,3.3c-4.2,0-7.8-3.4-7.8-7.9c0-4.8,3.5-8.4,7.8-8.4
	C-109.1,3110.5-108,3112.4-107.8,3113.2z"/>
</svg>
