<?xml version="1.0" encoding="utf-8"?>
<!-- Generator: Adobe Illustrator 19.1.0, SVG Export Plug-In . SVG Version: 6.00 Build 0)  -->
<svg version="1.1" id="Layer_1" xmlns="http://www.w3.org/2000/svg" xmlns:xlink="http://www.w3.org/1999/xlink" x="0px" y="0px"
	 viewBox="-118.5 3106.7 19 25.7" style="enable-background:new -118.5 3106.7 19 25.7;" xml:space="preserve">
<path d="M-109,3116.1L-109,3116.1C-109,3116.1-109,3116.1-109,3116.1C-109,3116.1-109,3116.1-109,3116.1L-109,3116.1
	c0.6,0,1.4-0.9,1.4-0.9c-0.5,0.3-0.9,0.4-1.4,0.4c-0.4,0-0.9-0.1-1.4-0.4C-110.4,3115.2-109.6,3116.1-109,3116.1z M-110.6,3127.7
	h-0.3c-0.3,0-0.7,0-1,0h-0.2c-0.3,0-0.4,0.1-0.5,0.1c-0.1,0.1-0.1,0.2,0,0.4c0.2,0.4,0.6,0.8,0.7,0.9c0.2,0.1,0.4,0.2,0.6,0.2
	c0.2,0,0.4-0.1,0.6-0.2c0.4-0.4,0.6-0.8,0.7-1c0-0.1,0.1-0.2,0-0.3C-110.3,3127.7-110.4,3127.7-110.6,3127.7z M-115.6,3116.2
	c-0.1,0.5,0.3,1,0.3,1c0-0.4,0.1-0.6,0.2-0.8c0,0.5,0.2,1.2,0.6,1.7c0.3,0.4,1.8,1.2,2.8,0.3c0,0.1,0.1,0.3,0.1,0.4
	c0.1,0.5-0.1,1.3-0.1,1.3s0.8-0.9,0.7-1.6c0.5,0,1.1-0.4,1.1-1c0,0-0.9,0.5-1.8-0.4c-0.5-0.6-2-2.1-4.2-1.6c0.2,0,0.4,0.1,0.7,0.2
	c0,0,0,0,0,0C-115.4,3115.7-115.5,3115.9-115.6,3116.2L-115.6,3116.2z M-114.1,3116.1c1,0.6,1.9,1.3,2.3,1.9l0,0c0,0,0,0,0,0
	c-0.3,0.2-1.1,0.5-1.9-0.1C-114.3,3117.5-114.3,3116.5-114.1,3116.1L-114.1,3116.1z M-105.9,3127.7h-0.2c-0.2,0-0.6,0-1,0h-0.3
	c-0.2,0-0.4,0-0.4,0.1c-0.1,0.1-0.1,0.3,0,0.3c0.1,0.1,0.3,0.6,0.7,1c0.1,0.1,0.3,0.2,0.6,0.2c0.2,0,0.4-0.1,0.6-0.2
	c0.1-0.1,0.5-0.5,0.7-0.9c0.1-0.2,0-0.3,0-0.4C-105.5,3127.7-105.6,3127.7-105.9,3127.7z M-107,3118.4c-0.1,0.8,0.7,1.6,0.7,1.6
	s-0.3-0.8-0.1-1.3c0-0.2,0.1-0.3,0.1-0.4c1,0.9,2.4,0.1,2.8-0.3c0.5-0.5,0.6-1.2,0.6-1.7c0.1,0.2,0.2,0.5,0.2,0.8c0,0,0.3-0.5,0.3-1
	c0-0.2-0.1-0.5-0.3-0.6c0,0,0,0,0,0c0.2-0.1,0.5-0.2,0.7-0.2c-2.1-0.5-3.7,1-4.2,1.6c-0.8,1-1.8,0.4-1.8,0.4
	C-108.1,3117.9-107.6,3118.3-107,3118.4L-107,3118.4z M-106.1,3117.9L-106.1,3117.9c0.4-0.6,1.3-1.3,2.3-1.9
	c0.1,0.5,0.2,1.4-0.3,1.8C-105,3118.5-105.8,3118.1-106.1,3117.9C-106.1,3117.9-106.1,3117.9-106.1,3117.9z M-101.1,3122.6
	c-0.1,0.9-0.7,1.7-1.2,2.2c-0.2-1.1-0.2-2.8-0.2-3.1c0-0.7,0.5-1.2,0.6-1.3c0.1-0.1,0.3-0.1,0.4-0.2c0.9-0.5,2-1.1,2-2.2
	c0-0.8-0.5-1.2-0.8-1.4c0,0-0.1-0.1-0.1-0.1c-0.1-0.1-0.2-0.2-0.2-0.2c-0.2-0.5-0.2-1.7-0.1-1.9c0,0,0.8-1,0.6-2
	c-0.1-0.4-0.3-0.7-0.7-0.9c-0.3-0.1-0.6-0.2-1-0.2c0-0.1,0-0.2,0-0.3c0-0.1-0.1-0.3,0-0.4c0-0.2,0-0.5,0.1-0.6
	c0.4-0.7,1.4-0.9,1.5-0.9l0.6-0.1l-0.4-0.5c0,0-0.9-0.9-2.3-0.9c-0.4,0-0.8,0.1-1.2,0.2c-1.2,0.4-2.1,1.5-2.5,2
	c-0.2,0-0.3-0.1-0.5-0.1c-0.2-0.8,0.4-1.9,0.4-1.9s-0.7-0.2-1.7,0.8c-0.1-0.3-0.4-1-0.1-1.9c-1.5,0.5-1.8,1.3-2,2
	c-0.4-0.3-0.3-1.2-0.4-1.4c-0.4,0-1.5,1.1-1.4,2.4c-0.1,0-0.2,0.1-0.3,0.1c-0.3-0.4-1.3-1.6-2.5-2c-0.4-0.1-0.8-0.2-1.2-0.2
	c-1.5,0-2.3,0.9-2.3,0.9l-0.4,0.5l0.6,0.1c0,0,1,0.2,1.5,0.9c0.1,0.1,0.1,0.3,0.1,0.6c0,0.1,0,0.3,0,0.4c0,0.1,0,0.2,0,0.3
	c-0.4,0-0.7,0.1-1,0.2c-0.4,0.2-0.6,0.5-0.7,0.9c-0.2,0.9,0.6,1.9,0.6,2c0.1,0.2,0.1,1.4-0.1,1.9c0,0.1-0.1,0.1-0.2,0.2
	c0,0-0.1,0.1-0.1,0.1c-0.3,0.2-0.8,0.6-0.8,1.4c0,1.1,1.1,1.7,2,2.2c0.1,0.1,0.3,0.2,0.4,0.2c0.1,0.1,0.6,0.6,0.6,1.3
	c0,0.3,0,2-0.2,3.1c-0.6-0.5-1.1-1.3-1.2-2.2c0,0-1.5,1.1-1,3.6c0.4,2.2,2.2,3,4.3,3.1c0.7,1.6,1.8,3.1,4.7,3.1l0,0c0,0,0,0,0,0
	c0,0,0,0,0,0l0,0c2.8,0,4-1.5,4.7-3.1c2.1-0.2,3.9-0.9,4.3-3.1C-99.6,3123.7-101.1,3122.6-101.1,3122.6L-101.1,3122.6z
	 M-103.3,3108.6c0.3-0.1,0.6-0.1,0.9-0.1c0.6,0,1,0.2,1.2,0.3c-0.2,0.1-0.3,0.2-0.5,0.3c-0.1,0-0.3,0-0.5,0c-0.5,0-1,0.2-1.4,0.4
	c-0.6,0.4-0.9,0.8-1,1.1c-0.1-0.1-0.2-0.1-0.4-0.2c-0.1,0-0.2-0.1-0.2-0.1C-104.9,3109.7-104.2,3108.8-103.3,3108.6L-103.3,3108.6z
	 M-102.2,3109.5c0,0.1-0.1,0.1-0.1,0.2c-0.2,0.3-0.2,0.6-0.2,0.9c0,0.3-0.1,0.6-0.2,0.9c-0.2,0-0.4,0.1-0.6,0.1
	c-0.1-0.2-0.3-0.4-0.5-0.6c0.1-0.2,0.3-0.8,0.7-1.1C-102.9,3109.6-102.6,3109.5-102.2,3109.5L-102.2,3109.5z M-116.3,3108.9
	c-0.2-0.1-0.3-0.2-0.5-0.3c0.2-0.1,0.7-0.3,1.2-0.3c0.3,0,0.6,0,0.9,0.1c0.9,0.3,1.6,1.2,1.9,1.6c-0.1,0-0.2,0.1-0.2,0.1
	c-0.1,0.1-0.2,0.1-0.4,0.2c-0.1-0.3-0.4-0.7-1-1.1c-0.4-0.3-0.9-0.4-1.4-0.4C-116.1,3108.9-116.2,3108.9-116.3,3108.9L-116.3,3108.9
	z M-114.1,3111c-0.2,0.2-0.4,0.4-0.5,0.6c-0.2,0-0.4-0.1-0.6-0.1l-0.6-1.9c0.4,0,0.7,0.1,1,0.4L-114.1,3111L-114.1,3111z
	 M-115.7,3119.7c-0.1-0.1-0.3-0.2-0.4-0.2c-0.7-0.4-1.5-0.8-1.5-1.5c0-0.6,0.2-0.7,0.4-0.9l0.1-0.2c0,0.4-0.1,0.7-0.1,0.8
	c0,0,0.6-0.8,0.8-2.2c0.1-0.6-0.1-1.7-0.3-2.2c0,0.2,0,0.5,0,0.7c0,0,0-0.1-0.1-0.1c-0.2-0.2-0.6-0.9-0.5-1.3c0-0.2,0.2-0.3,0.3-0.4
	c0.2-0.1,0.4-0.1,0.8-0.1c0.6,0,1.3,0.2,1.7,0.3c1.3,0.4,2.8,1.5,3.2,1.9c0,0,0,0,0,0l0.3,0.2l-0.2-0.3c0,0-1-1.6-2.7-2.3
	c0.1-0.1,0.4-0.4,1.1-0.8c1.1-0.5,2.3-0.8,3.7-0.8c1.4,0,2.7,0.3,3.7,0.8c0.7,0.3,1,0.6,1.1,0.8c-1.7,0.8-2.7,2.3-2.7,2.3l-0.2,0.3
	l0.3-0.2c0,0,0,0,0,0c0.4-0.3,2-1.5,3.2-1.9c0.4-0.1,1-0.3,1.7-0.3c0.3,0,0.6,0,0.8,0.1c0.2,0.1,0.3,0.2,0.3,0.4
	c0.1,0.5-0.3,1.1-0.5,1.3c0,0,0,0.1-0.1,0.1c0-0.2,0-0.5,0-0.7c-0.2,0.4-0.3,1.6-0.3,2.2c0.2,1.5,0.8,2.2,0.8,2.2
	c0-0.1-0.1-0.4-0.1-0.7c0,0,0.1,0.1,0.1,0.1l0,0c0.2,0.2,0.4,0.4,0.4,0.9c0,0.7-0.8,1.1-1.5,1.5c-0.1,0.1-0.3,0.2-0.4,0.2
	c-0.4,0.3-0.9,0.8-1,1.7c0,0.7,0,2.5,0.2,3.8c-0.6,0.2-1.3,0.3-2,0.3c-0.1-0.2-0.2-0.4-0.3-0.7c0-0.1-1-2.6-1.3-3.1
	c0.3,2,0.9,3.7,1.2,4.5c-0.2,0-0.4,0-0.6,0c0,0-2.1,0-2.9,0c0,0,0,0,0,0c0,0,0,0,0,0c-0.8,0-2.9,0-2.9,0c-0.2,0-0.4,0-0.6,0
	c0.3-0.8,0.9-2.5,1.2-4.5c-0.3,0.6-1.3,3-1.3,3.1c-0.1,0.2-0.2,0.5-0.3,0.7c-0.6,0-1.4-0.1-2-0.3c0.1-1.3,0.2-3.1,0.2-3.8
	C-114.8,3120.5-115.3,3120-115.7,3119.7L-115.7,3119.7z M-113.7,3126.8C-113.7,3126.8-113.7,3126.8-113.7,3126.8
	c-0.4,0.5-0.5,1-0.3,1.7c-1.1,0-2.3-0.5-2.9-1.5c-0.6-1-0.4-2.7-0.2-3c0.5,1.7,2.4,2.2,3.7,2.3
	C-113.5,3126.5-113.6,3126.7-113.7,3126.8z M-104.7,3128.4c-0.3,0.9-1.2,3.2-4.3,3.2c-3,0-3.9-2.3-4.3-3.2c-0.2-0.5-0.2-0.9,0-1.2
	c0.1-0.2,0.5-0.4,1.2-0.4h0.8c0.6,0,1.3,0,2.2,0c0.9,0,1.6,0,2.2,0h0.8c0.8,0,1.1,0.2,1.2,0.4
	C-104.6,3127.5-104.6,3127.9-104.7,3128.4L-104.7,3128.4z M-101.1,3127c-0.6,1-1.8,1.5-2.9,1.5c0.2-0.7,0.2-1.2-0.2-1.6
	c0,0,0,0-0.1-0.1c-0.1-0.1-0.2-0.3-0.3-0.5c1.4-0.1,3.2-0.6,3.7-2.3C-100.7,3124.2-100.5,3126-101.1,3127L-101.1,3127z"/>
</svg>
