<?xml version="1.0" encoding="utf-8"?>
<!-- Generator: Adobe Illustrator 19.1.0, SVG Export Plug-In . SVG Version: 6.00 Build 0)  -->
<svg version="1.1" id="Layer_1" xmlns="http://www.w3.org/2000/svg" xmlns:xlink="http://www.w3.org/1999/xlink" x="0px" y="0px"
	 viewBox="-116.1 3103.7 14.2 31.6" style="enable-background:new -116.1 3103.7 14.2 31.6;" xml:space="preserve">
<path d="M-102.8,3103.7c0,0-0.9,0.9-1.9,2l-1.9,2l-0.8,2.9l-2.1,0c-3.9,0.1-6.2,0.4-6.6,0.9c-0.1,0.1-0.1,0.1,0.1,0.3
	c1,0.9,9.1,1.1,12.8,0.4c1.3-0.3,1.7-0.6,0.9-0.9c-0.5-0.2-2.5-0.6-3.4-0.6c-0.2,0-0.3,0-0.3-0.1c0-0.1,0.1-0.6,0.3-1.3l0.3-1.2
	l1.8-1.9c1-1,1.8-1.9,1.8-1.9C-101.8,3104.2-102.6,3103.6-102.8,3103.7z M-116,3112.4c0,0.2,0.8,7.3,0.8,7.4c0,0.1,0.1,0,0.1-0.2
	c0.6-1.6,1.7-2.9,2.6-3.1c0.5-0.1,0.8,0,1.2,0.4c0.4,0.4,0.5,0.8,0.2,1c-0.2,0.1-0.3,0-0.5-0.4c-0.4-0.8-1.2-0.4-2.1,1.1
	c-0.9,1.5-1.2,3.2-0.5,3.2c0.3,0,0.9-0.5,1.3-1c0.3-0.4,0.4-0.6,0.6-1.1c0.1-0.3,0.2-0.6,0.3-0.7c0.1,0,0.2-0.1,0.3-0.1
	c0.2,0,0.2,0,0.2,0.3c0,0.2,0,0.5-0.2,0.8c-0.2,0.5-0.4,1.2-0.8,2.5c-0.1,0.3-0.2,0.6-0.3,0.7c-0.1,0.2-0.3,0.2-0.4,0
	c-0.1-0.1,0-0.3,0.1-0.9c0.1-0.4,0.2-0.8,0.2-0.8c0-0.1-0.1,0-0.4,0.3c-0.6,0.6-1.2,0.8-1.6,0.6c-0.1-0.1-0.1,0-0.1,0.1
	c0,0.5,0.4,4.7,0.5,4.8c0.2,0.2,1.5,0.6,2.9,0.8c1,0.2,4,0.2,5,0c0.9-0.1,1.9-0.4,2.3-0.5c0.7-0.2,0.6,0,1-3.2
	c0.2-1.6,0.3-2.9,0.3-2.9c0,0-0.2,0.1-0.4,0.3c-0.5,0.4-0.8,0.6-1.2,0.6c-0.3,0-0.5-0.1-0.6-0.3c-0.1-0.2,0-0.5,0.5-1.1
	c0.5-0.7,0.6-0.8,0.6-0.9c0-0.3-0.6,0-1,0.5c-0.1,0.2-0.3,0.4-0.4,0.5c-0.2,0.3-0.8,1.6-1,2.4c-0.2,0.6-0.4,0.9-0.6,0.9
	c-0.1,0-0.3-0.1-0.3-0.2c0-0.2,0.2-0.7,0.6-1.5c0.2-0.5,0.4-0.9,0.4-1s-0.1,0.1-0.3,0.2c-0.4,0.3-0.8,0.5-1,0.5
	c-0.2,0-0.5-0.1-0.5-0.3c0-0.1,0-0.1-0.4,0.1c-0.6,0.3-0.9,0.2-0.9-0.3v-0.3l-0.3,0.3c-0.5,0.5-1.1,0.6-1.5,0.4
	c-0.2-0.2-0.2-0.6,0-1.3c0.4-1.3,0.8-1.8,1.1-1.6c0.2,0.1,0.1,0.3-0.1,0.9c-0.5,1-0.5,1.5-0.1,1.4c0.4-0.1,0.9-0.8,1.3-1.7
	c0.1-0.2,0.2-0.5,0.3-0.6c0.1-0.2,0.3-0.1,0.4,0.1c0,0.1,0,0.3-0.2,0.9c-0.2,0.5-0.3,0.8-0.3,1c0,0.3,0,0.3,0.2,0.3
	c0.2,0,0.6-0.3,0.6-0.4c0.2-0.6,1.6-4.2,1.8-4.3c0.1-0.1,0.2-0.1,0.3-0.1c0.1,0,0.2,0.1,0.2,0.2c0,0.1-0.1,0.4-0.3,0.8
	c-0.6,1.4-1.4,3.5-1.4,3.6c0,0.1,0,0.2,0.1,0.2c0.1,0,0.6-0.3,1-0.6c0.4-0.3,0.5-0.5,0.6-0.7c0.2-0.7,0.4-0.9,0.7-0.8
	c0.1,0.1,0.1,0.1,0.1,0.3c0,0.1,0,0.2,0,0.2s0.2-0.1,0.3-0.3c0.5-0.4,0.9-0.5,1.3-0.3c0.2,0.1,0.2,0.2,0.2,0.4
	c0,0.3-0.3,0.8-0.8,1.4c-0.2,0.2-0.3,0.4-0.3,0.5c0,0,0.1,0.1,0.1,0.1c0.1,0,1.2-0.8,1.4-1.1c0.1-0.1,0.2-1.2,0.5-4.3
	c0.2-2.3,0.4-4.2,0.4-4.2c0,0-0.2,0-0.4,0.1c-0.5,0.2-1.5,0.4-2.8,0.5c-1.4,0.1-6,0.2-7.4,0c-1.3-0.1-2.5-0.3-3-0.5l-0.5-0.1
	L-116,3112.4L-116,3112.4z M-114.1,3127.9c0,0,0.2,0.4,0.4,0.8l0.4,0.8l0.2,2.5l0.2,2.5l0.2,0.2c0.5,0.4,1.6,0.6,3.3,0.7
	c2,0,3.5-0.2,4-0.7l0.2-0.2l0.1-2.5l0.1-2.5l0.4-0.7c0.2-0.4,0.4-0.7,0.4-0.8c0,0-0.2,0-0.4,0.1c-0.8,0.3-2.5,0.5-4,0.6
	c-1.6,0.1-4.1-0.2-5.4-0.7C-114,3127.9-114.1,3127.9-114.1,3127.9L-114.1,3127.9z"/>
</svg>
