<?xml version="1.0" encoding="utf-8"?>
<!-- Generator: Adobe Illustrator 19.1.0, SVG Export Plug-In . SVG Version: 6.00 Build 0)  -->
<svg version="1.1" id="Layer_1" xmlns="http://www.w3.org/2000/svg" xmlns:xlink="http://www.w3.org/1999/xlink" x="0px" y="0px"
     viewBox="-242.9 6206.4 17.4 32" style="enable-background:new -242.9 6206.4 17.4 32;" xml:space="preserve">
<path d="M-242.9,6234.7c-0.2,1.8,0.8,3.2,2.5,3.6c1.4,0.4,3-0.3,3.7-1.5c0.2-0.4,2.5-6.3,5.1-13.2
    c4.4-11.6,4.8-12.6,5.4-13.2c0.4-0.4,0.7-0.8,0.7-0.9c0-0.1-0.3-0.5-0.7-0.8c-1.6-1.4-5.2-2.6-6.8-2.2c-0.3,0.1-0.3,0.3-0.3,1.1
    c0,1-0.2,1.6-1.2,4.2c-0.3,0.7-0.8,2-1.1,2.9c-0.3,0.8-0.7,2-1,2.6s-0.8,2-1.2,3.1s-1.2,3.2-1.8,4.7c-0.6,1.5-1.2,2.9-1.4,3.1
    L-242.9,6234.7z M-229.1,6207.5c1.7,0.7,2.6,1.6,1.9,1.9c-0.7,0.3-3.7-0.8-4.5-1.6c-0.3-0.3-0.3-0.4-0.2-0.6
    C-231.6,6206.8-230.5,6206.9-229.1,6207.5L-229.1,6207.5z M-231.9,6209.7c0.6,0.6,1.9,1.1,3.2,1.2c0.7,0,1.2,0.1,1.2,0.1
    s-0.1,0.2-0.3,0.4c-0.1,0.2-0.7,1.6-1.3,3c-0.9,2.3-1.1,2.8-1.7,3.3c-0.9,0.8-2.4,1.7-3.5,1.9c-0.5,0.1-1.2,0.3-1.6,0.5
    c-0.4,0.2-0.8,0.3-0.9,0.3c-0.2,0,0.3-1.4,2-5.6c0.5-1.4,1.2-3.2,1.5-4c0.3-0.8,0.7-1.6,0.7-1.6
    C-232.3,6209.3-232.1,6209.5-231.9,6209.7L-231.9,6209.7z M-230.4,6218.2c-0.1,0.1-1.6,4.2-3.5,9.1c-3,8-3.5,9.1-4,9.5
    c-0.3,0.3-0.7,0.6-0.9,0.5c-0.2,0-0.1-0.1,0.2-0.2c0.3-0.1,0.5-0.3,0.5-0.5c0-0.2,0.1-0.4,0.2-0.4c0.1-0.1,0.2-0.3,0.3-0.6
    c0.1-0.3,0.2-0.7,0.2-0.8c0.3-0.5,1-2.5,1-2.6s0.1-0.4,0.2-0.7c0.1-0.3,0.6-1.4,1-2.4c0.4-1,0.9-2.3,1.1-2.8s0.4-1,0.5-1.1
    c0.1-0.1,0.1-0.3,0.1-0.5c0-0.2,0.1-0.6,0.3-0.9c0.5-1.2,0.7-1.7,1-2.5c0.2-0.5,0.4-1,0.4-1.1c0.2-0.3,0.2-0.8,0.1-0.8
    c-0.1,0-0.3,0.1-0.6,0.3c-0.4,0.2-0.4,0.2,0.1-0.1c0.3-0.2,0.8-0.6,1.1-1C-230.7,6218.2-230.2,6217.9-230.4,6218.2L-230.4,6218.2z
     M-235.1,6220.7c0,0.1-0.1,0.2-0.3,0.2c-0.3,0-0.8,1.1-0.8,1.8c0,0.3-0.1,0.6-0.1,0.6c-0.3,0-0.9,1.4-1,2.3
    c-0.1,0.8-0.1,0.9,0.2,1.1c0.5,0.2,0.6,0.8,0.3,1.2s-1,0.5-1.2,0.2c-0.3-0.4-0.4-0.1-0.3,0.5c0.1,0.6,0.1,0.7-0.3,0.8
    c-0.3,0.1-0.5,0.5-0.7,1c-0.6,1.6-1.1,3-1.5,3.9c-0.2,0.5-0.4,1.2-0.4,1.7c-0.1,0.7,0,0.9,0.3,1.3l0.4,0.5l-0.5-0.4
    c-0.6-0.4-1.2-1.6-1.2-2.2c0-0.2,0.5-1.7,1.1-3.3c0.6-1.6,1.1-3.1,1.1-3.2s0.6-0.8,1.2-1.4c0.7-0.7,1.1-1.2,1-1.2
    c-0.1,0-0.5,0.2-0.8,0.5c-0.3,0.3-0.6,0.5-0.6,0.3c0-0.5,1.6-4.2,2-4.7c0.4-0.4,1.8-1.5,2-1.5
    C-235.1,6220.5-235.1,6220.5-235.1,6220.7L-235.1,6220.7z"/>
</svg>
