<?xml version="1.0" encoding="utf-8"?>
<!-- Generator: Adobe Illustrator 19.1.0, SVG Export Plug-In . SVG Version: 6.00 Build 0)  -->
<svg version="1.1" id="Layer_1" xmlns="http://www.w3.org/2000/svg" xmlns:xlink="http://www.w3.org/1999/xlink" x="0px" y="0px"
	 viewBox="-120.3 3112.4 22.6 14.1" style="enable-background:new -120.3 3112.4 22.6 14.1;" xml:space="preserve">
<path d="M-99.3,3112.4h-19.3c-0.9,0-1.6,0.7-1.6,1.6v10.9c0,0.9,0.7,1.6,1.6,1.6h19.3c0.9,0,1.6-0.7,1.6-1.6v-10.9
	C-97.7,3113.2-98.4,3112.4-99.3,3112.4z M-107.6,3123.7l-2.8,0v-4.2l-2.1,2.7l-2.1-2.7v4.2h-2.8v-8.5h2.8l2.1,2.8l2.1-2.8l2.8,0
	V3123.7z M-103.4,3124.4l-3.5-4.9h2.1v-4.2h2.8v4.2h2.1L-103.4,3124.4L-103.4,3124.4z"/>
</svg>
