<?xml version="1.0" encoding="utf-8"?>
<!-- Generator: Adobe Illustrator 19.1.0, SVG Export Plug-In . SVG Version: 6.00 Build 0)  -->
<svg version="1.1" id="Layer_1" xmlns="http://www.w3.org/2000/svg" xmlns:xlink="http://www.w3.org/1999/xlink" x="0px" y="0px"
	 viewBox="-459.5 269.4 25 23.8" style="enable-background:new -459.5 269.4 25 23.8;" xml:space="preserve">
<path d="M-456.4,279c0.3,0,0.5,0,0.7,0.1c0.2,0.1,0.3,0.2,0.3,0.3c0,0.1,0,0.3-0.1,0.5c-0.1,0.2-0.1,0.3-0.2,0.4c0,0-0.1,0-0.1,0
	c0,0-0.1-0.1-0.1-0.1c0-0.1,0.1-0.2,0.1-0.4c0-0.2,0-0.3-0.1-0.4c-0.1-0.1-0.2-0.2-0.4-0.2c-0.2,0-0.4,0.1-0.5,0.2
	c-0.1,0.1-0.2,0.3-0.2,0.6c0,0.2,0.1,0.4,0.2,0.6c0.1,0.2,0.2,0.4,0.4,0.6c0.1,0.2,0.3,0.4,0.4,0.6c0.1,0.2,0.2,0.5,0.2,0.7
	c0,0.5-0.2,0.8-0.6,1.1s-0.9,0.4-1.5,0.4c-0.4,0-0.8-0.1-1-0.2c-0.3-0.1-0.4-0.3-0.4-0.5c0-0.1,0-0.1,0.1-0.2c0-0.1,0.1-0.2,0.2-0.3
	c0.1-0.1,0.1-0.2,0.2-0.3s0.2-0.2,0.3-0.3c0,0,0.1,0,0.1,0s0,0.1,0,0.1c-0.1,0.1-0.1,0.2-0.2,0.2c0,0.1-0.1,0.2-0.1,0.3
	c0,0.2,0.1,0.4,0.2,0.6s0.4,0.2,0.6,0.2c0.3,0,0.6-0.1,0.8-0.3c0.2-0.2,0.3-0.4,0.3-0.7c0-0.2-0.1-0.5-0.2-0.7
	c-0.1-0.2-0.2-0.4-0.4-0.6c-0.1-0.2-0.2-0.4-0.4-0.6c-0.1-0.2-0.2-0.4-0.2-0.7c0-0.3,0.1-0.6,0.4-0.8S-457,279-456.4,279L-456.4,279
	z M-451.1,279.1c0.1,0,0.1,0.1,0.1,0.1c0,0-0.1,0.1-0.2,0.1c-0.2,0-0.4,0-0.7,0c-0.3,0-0.5,0-0.8,0.1c-0.3,0.6-0.5,1.3-0.6,1.9
	c-0.2,0.6-0.3,1.1-0.3,1.5c0,0.4,0.2,0.7,0.5,0.7s0.7-0.3,1.1-0.9c0,0,0.1,0,0.1,0s0,0.1,0,0.1c-0.2,0.4-0.5,0.7-0.8,0.9
	c-0.3,0.3-0.7,0.4-1,0.4c-0.3,0-0.6-0.1-0.7-0.2c-0.2-0.2-0.2-0.4-0.2-0.7c0-0.4,0.1-0.9,0.3-1.6c0.2-0.7,0.4-1.3,0.7-2
	c-0.3,0-0.6,0.1-0.9,0.2c-0.1,0-0.1,0,0-0.1c0-0.1,0.1-0.1,0.2-0.2c0.1-0.1,0.2-0.1,0.3-0.2c0.1,0,0.2-0.1,0.3-0.1
	c0.1,0,0.1,0,0.2,0c0.1,0,0.1,0,0.2,0c0.2-0.4,0.3-0.7,0.5-1.1s0.4-0.7,0.5-1c0.1-0.1,0.2-0.2,0.3-0.2c0.1-0.1,0.3-0.1,0.4-0.2
	c0.1,0,0.2-0.1,0.3-0.1c0.1,0,0.1,0,0.1,0.1c-0.2,0.3-0.4,0.7-0.6,1.1c-0.2,0.4-0.4,0.8-0.6,1.3c0.2,0,0.5,0,0.7,0
	C-451.6,279.1-451.3,279.1-451.1,279.1L-451.1,279.1z M-439.3,269.4c0.2,0,0.4,0,0.5,0.1c0.1,0.1,0.2,0.2,0.3,0.4
	c0,0.2,0.1,0.3,0,0.6c0,0.2-0.1,0.4-0.2,0.6c0,0-0.1,0-0.1,0s-0.1-0.1-0.1-0.1c0-0.2,0-0.3-0.2-0.4c-0.1-0.1-0.3-0.2-0.6-0.2
	c-0.5,0-1.1,0.2-1.6,0.6c-0.5,0.4-1.1,0.9-1.6,1.6c-0.5,0.6-1,1.4-1.4,2.2c-0.4,0.8-0.8,1.7-1.1,2.6c-0.3,0.9-0.6,1.8-0.8,2.7
	c-0.2,0.9-0.3,1.7-0.3,2.4c0,0.4,0.1,0.6,0.3,0.6c0.2,0,0.3-0.1,0.5-0.2s0.3-0.3,0.5-0.6c0,0,0.1,0,0.1,0c0,0,0,0.1,0,0.1
	c-0.3,0.4-0.6,0.7-0.9,1s-0.7,0.4-1,0.4c-0.2,0-0.4-0.1-0.5-0.2c-0.1-0.1-0.1-0.3-0.1-0.5c0-0.6,0.1-1.4,0.4-2.3
	c0.3-0.9,0.6-1.9,1-2.9c0.4-1,0.9-2,1.5-3s1.2-1.9,1.8-2.7c0.6-0.8,1.2-1.5,1.9-2S-439.9,269.4-439.3,269.4L-439.3,269.4z
	 M-456.6,293.2c-0.2,0-0.4,0-0.5-0.1c-0.1-0.1-0.2-0.2-0.3-0.4c0-0.2-0.1-0.3,0-0.6c0-0.2,0.1-0.4,0.2-0.6c0,0,0.1,0,0.1,0
	s0.1,0.1,0.1,0.1c0,0.2,0,0.3,0.2,0.4c0.1,0.1,0.3,0.2,0.6,0.2c0.5,0,1.1-0.2,1.6-0.6c0.5-0.4,1.1-0.9,1.6-1.6
	c0.5-0.6,1-1.4,1.4-2.2s0.8-1.7,1.1-2.6c0.3-0.9,0.6-1.8,0.8-2.7c0.2-0.9,0.3-1.7,0.3-2.4c0-0.4-0.1-0.6-0.3-0.6
	c-0.2,0-0.3,0.1-0.5,0.2c-0.1,0.1-0.3,0.3-0.5,0.6c0,0-0.1,0-0.1,0c0,0,0-0.1,0-0.1c0.3-0.4,0.6-0.7,0.9-1c0.3-0.3,0.7-0.4,1-0.4
	c0.2,0,0.4,0.1,0.5,0.2c0.1,0.1,0.1,0.3,0.1,0.5c0,0.6-0.1,1.4-0.4,2.3c-0.3,0.9-0.6,1.9-1,2.9c-0.4,1-0.9,2-1.5,3
	c-0.6,1-1.2,1.9-1.8,2.7c-0.6,0.8-1.2,1.5-1.9,2S-456,293.2-456.6,293.2L-456.6,293.2z M-443.5,283.9c-0.5,0-0.8-0.3-0.8-0.9
	c0-0.2,0-0.4,0.1-0.7c0-0.3,0.1-0.6,0.2-0.8c0.1-0.3,0.2-0.6,0.3-0.9c0.1-0.3,0.3-0.6,0.5-0.9c-0.1,0.1-0.3,0.2-0.4,0.3
	c-0.1,0.1-0.2,0.2-0.3,0.3c0,0-0.1,0-0.1,0c0,0,0-0.1,0-0.1c0.2-0.2,0.5-0.5,0.9-0.7c0.4-0.2,0.8-0.4,1.2-0.6c0.1,0,0.1,0,0.1,0
	c0,0,0,0.1,0,0.1c-0.4,0.5-0.7,1.1-1,1.8s-0.4,1.2-0.4,1.8c0,0.4,0.1,0.6,0.3,0.6c0.2,0,0.4-0.1,0.6-0.3c0.2-0.2,0.5-0.5,0.8-0.9
	c0.3-0.4,0.5-0.8,0.8-1.3c0.3-0.5,0.5-0.9,0.8-1.4c0-0.1,0.2-0.2,0.3-0.2c0.2-0.1,0.4-0.1,0.6-0.1s0.3,0.1,0.2,0.2
	c-0.2,0.3-0.3,0.6-0.5,0.9c-0.1,0.3-0.2,0.6-0.3,0.9c-0.1,0.3-0.2,0.6-0.2,0.9c0,0.3-0.1,0.6-0.1,1c0,0.4,0.1,0.6,0.3,0.6
	s0.5-0.2,0.7-0.6c0,0,0.1,0,0.1,0s0.1,0.1,0,0.1c-0.2,0.3-0.5,0.6-0.7,0.8c-0.3,0.2-0.5,0.3-0.7,0.3c-0.5,0-0.8-0.3-0.8-1
	c0-0.7,0.1-1.3,0.3-2c-0.5,0.9-1,1.6-1.6,2.1C-442.6,283.7-443.1,283.9-443.5,283.9L-443.5,283.9z M-435.4,279c0.3,0,0.5,0,0.7,0.1
	c0.2,0.1,0.3,0.2,0.3,0.3c0,0.1,0,0.3-0.1,0.5c-0.1,0.2-0.1,0.3-0.2,0.4c0,0-0.1,0-0.1,0c0,0-0.1-0.1-0.1-0.1c0-0.1,0.1-0.2,0.1-0.4
	c0-0.2,0-0.3-0.1-0.4s-0.2-0.2-0.4-0.2c-0.2,0-0.4,0.1-0.5,0.2c-0.1,0.1-0.2,0.3-0.2,0.6c0,0.2,0.1,0.4,0.2,0.6
	c0.1,0.2,0.2,0.4,0.4,0.6c0.1,0.2,0.3,0.4,0.4,0.6c0.1,0.2,0.2,0.5,0.2,0.7c0,0.5-0.2,0.8-0.6,1.1s-0.9,0.4-1.5,0.4
	c-0.4,0-0.8-0.1-1-0.2c-0.3-0.1-0.4-0.3-0.4-0.5c0-0.1,0-0.1,0.1-0.2s0.1-0.2,0.2-0.3c0.1-0.1,0.1-0.2,0.2-0.3s0.2-0.2,0.3-0.3
	c0,0,0.1,0,0.1,0c0,0,0,0.1,0,0.1c-0.1,0.1-0.1,0.2-0.2,0.2c0,0.1-0.1,0.2-0.1,0.3c0,0.2,0.1,0.4,0.2,0.6s0.4,0.2,0.6,0.2
	c0.3,0,0.6-0.1,0.8-0.3c0.2-0.2,0.3-0.4,0.3-0.7c0-0.2-0.1-0.5-0.2-0.7c-0.1-0.2-0.2-0.4-0.4-0.6c-0.1-0.2-0.2-0.4-0.4-0.6
	c-0.1-0.2-0.2-0.4-0.2-0.7c0-0.3,0.1-0.6,0.4-0.8S-436,279-435.4,279L-435.4,279z"/>
</svg>
