<svg xmlns="http://www.w3.org/2000/svg" viewBox="-120.3 3109.5 22.7 19.9"><path d="M-111.6 3113.5c-.7 0-1.2.5-1.2 1.2s.5 1.2 1.2 1.2 1.2-.5 1.2-1.2-.5-1.2-1.2-1.2zm0 1.1c-.4 0-.7-.2-.7-.4s.3-.4.7-.4c.4 0 .7.2.7.4s-.3.4-.7.4zm13.5 4.7c-1.2-1.1-7-1.8-8.8-2 .1-.2.2-.4.2-.7.3-.1.5-.2.8-.3 0 .1.2.5.3.7 3.7.1 3.9-2.7 4-3.5.1-.8.1-1.5 1.4-2.8-1.9-.6-4.6.9-5.5 2.9-.3-.1-.7-.2-1-.3-.2-1-1.5-3.7-4.8-3.7-2.1 0-4.3.9-5.9 2.4-.9.8-1.6 1.8-2.1 2.9-.5 1.2-.8 2.5-.8 4 0 4.9 3.4 9.3 5.3 9.3.8 0 1.5-.6 1.7-1.2.1.4.6 1.6.7 1.9.2.4 1.2.8 1.6.4.5.3 1.5.5 2.1-.3 1.1.2 2-.4 2-1.2.5 0 .8-.8.7-1.3-.1-.4-1-1.9-1.3-2.5.7.6 2.4.7 2.6 0 1.1.9 2.8.4 3-.3 1.3.3 2.9-.4 2.6-1.3 2.1-.3 1.8-2.5 1.2-3.1zm-5.6-3.8c-.6-.2-1.3-.4-1.8-.4-.7 0-1.2.4-1.8.4-.1 0-.5 0-.7-.1.2.2.4.3.8.3.3 0 .8-.1 1.2-.3v.3c-.8.2-1.6.7-1.8.8-.5-1.1-.1-2.2.3-2.7 1.8 0 3.3 1.3 3.8 1.7zm.8-.1l-.3-.3c-.3-.3-.6-.5-.9-.7.5-.9 1-1.9 1.8-2.5-.8.3-1.6 1.3-2.1 2.3-.2-.2-.5-.3-.7-.4.7-1.4 2.2-2.6 3.9-2.7-1.2 1-.8 3.1-1.7 4.3zm-2.3 1c-.1-.3-.3-.7-.2-1 .2 0 .6.1.7.1v.4c0-.1.2-.3.2-.4.4.1.9.2 1.2.4-.5.2-1.1.4-1.9.5zm-2.6-3.2c-1.5 1.5-.9 3.4-.4 4.2-.8 1.3-2.3 2.1-4 2.5 2 0 3.1-.5 3.8-1 .4-.3.7-.6.8-.8 2.9.2 7.5 1.1 8 1.4.2.1.4.4.4.6-2.2-.3-6.1-.6-7.2-.7.7.1 6.1 1.1 7 1.4-.3.5-.9.8-1.9.6.5.7-.5 1.6-1.9 1.1.3.7-.9 1.3-2.4.6 0 .7-1.8.8-2.5 0 0 .1.1.3.1.3-.2 2-1.9 3.3-3.6 3.3-4.2 0-7.8-3.4-7.8-7.9 0-4.8 3.5-8.4 7.8-8.4 2.5.1 3.6 2 3.8 2.8z"/></svg>