<svg xmlns="http://www.w3.org/2000/svg" viewBox="-118.5 3106.7 19 25.7"><path d="M-109 3116.1c.6 0 1.4-.9 1.4-.9-.5.3-.9.4-1.4.4-.4 0-.9-.1-1.4-.4 0 0 .8.9 1.4.9zm-1.6 11.6h-1.5c-.3 0-.4.1-.5.1-.1.1-.1.2 0 .4.2.4.6.8.7.9.2.1.4.2.6.2.2 0 .4-.1.6-.2.4-.4.6-.8.7-1 0-.1.1-.2 0-.3-.3-.1-.4-.1-.6-.1zm-5-11.5c-.1.5.3 1 .3 1 0-.4.1-.6.2-.8 0 .5.2 1.2.6 1.7.3.4 1.8 1.2 2.8.3 0 .1.1.3.1.4.1.5-.1 1.3-.1 1.3s.8-.9.7-1.6c.5 0 1.1-.4 1.1-1 0 0-.9.5-1.8-.4-.5-.6-2-2.1-4.2-1.6.2 0 .4.1.7.2-.2 0-.3.2-.4.5zm1.5-.1c1 .6 1.9 1.3 2.3 1.9-.3.2-1.1.5-1.9-.1-.6-.4-.6-1.4-.4-1.8zm8.2 11.6h-1.5c-.2 0-.4 0-.4.1-.1.1-.1.3 0 .3.1.1.3.6.7 1 .1.1.3.2.6.2.2 0 .4-.1.6-.2.1-.1.5-.5.7-.9.1-.2 0-.3 0-.4-.3-.1-.4-.1-.7-.1zm-1.1-9.3c-.1.8.7 1.6.7 1.6s-.3-.8-.1-1.3c0-.2.1-.3.1-.4 1 .9 2.4.1 2.8-.3.5-.5.6-1.2.6-1.7.1.2.2.5.2.8 0 0 .3-.5.3-1 0-.2-.1-.5-.3-.6.2-.1.5-.2.7-.2-2.1-.5-3.7 1-4.2 1.6-.8 1-1.8.4-1.8.4-.1.6.4 1 1 1.1zm.9-.5c.4-.6 1.3-1.3 2.3-1.9.1.5.2 1.4-.3 1.8-.9.7-1.7.3-2 .1zm5 4.7c-.1.9-.7 1.7-1.2 2.2-.2-1.1-.2-2.8-.2-3.1 0-.7.5-1.2.6-1.3.1-.1.3-.1.4-.2.9-.5 2-1.1 2-2.2 0-.8-.5-1.2-.8-1.4l-.1-.1-.2-.2c-.2-.5-.2-1.7-.1-1.9 0 0 .8-1 .6-2-.1-.4-.3-.7-.7-.9-.3-.1-.6-.2-1-.2v-.3c0-.1-.1-.3 0-.4 0-.2 0-.5.1-.6.4-.7 1.4-.9 1.5-.9l.6-.1-.4-.5s-.9-.9-2.3-.9c-.4 0-.8.1-1.2.2-1.2.4-2.1 1.5-2.5 2-.2 0-.3-.1-.5-.1-.2-.8.4-1.9.4-1.9s-.7-.2-1.7.8c-.1-.3-.4-1-.1-1.9-1.5.5-1.8 1.3-2 2-.4-.3-.3-1.2-.4-1.4-.4 0-1.5 1.1-1.4 2.4-.1 0-.2.1-.3.1-.3-.4-1.3-1.6-2.5-2-.4-.1-.8-.2-1.2-.2-1.5 0-2.3.9-2.3.9l-.4.5.6.1s1 .2 1.5.9c.1.1.1.3.1.6v.7c-.4 0-.7.1-1 .2-.4.2-.6.5-.7.9-.2.9.6 1.9.6 2 .1.2.1 1.4-.1 1.9 0 .1-.1.1-.2.2l-.1.1c-.3.2-.8.6-.8 1.4 0 1.1 1.1 1.7 2 2.2.1.1.3.2.4.2.1.1.6.6.6 1.3 0 .3 0 2-.2 3.1-.6-.5-1.1-1.3-1.2-2.2 0 0-1.5 1.1-1 3.6.4 2.2 2.2 3 4.3 3.1.7 1.6 1.8 3.1 4.7 3.1 2.8 0 4-1.5 4.7-3.1 2.1-.2 3.9-.9 4.3-3.1.3-2.5-1.2-3.6-1.2-3.6zm-2.2-14c.3-.1.6-.1.9-.1.6 0 1 .2 1.2.3-.2.1-.3.2-.5.3h-.5c-.5 0-1 .2-1.4.4-.6.4-.9.8-1 1.1-.1-.1-.2-.1-.4-.2-.1 0-.2-.1-.2-.1.3-.6 1-1.5 1.9-1.7zm1.1.9c0 .1-.1.1-.1.2-.2.3-.2.6-.2.9 0 .3-.1.6-.2.9-.2 0-.4.1-.6.1-.1-.2-.3-.4-.5-.6.1-.2.3-.8.7-1.1.2-.3.5-.4.9-.4zm-14.1-.6c-.2-.1-.3-.2-.5-.3.2-.1.7-.3 1.2-.3.3 0 .6 0 .9.1.9.3 1.6 1.2 1.9 1.6-.1 0-.2.1-.2.1-.1.1-.2.1-.4.2-.1-.3-.4-.7-1-1.1-.4-.3-.9-.4-1.4-.4-.3.1-.4.1-.5.1zm2.2 2.1c-.2.2-.4.4-.5.6-.2 0-.4-.1-.6-.1l-.6-1.9c.4 0 .7.1 1 .4l.7 1zm-1.6 8.7c-.1-.1-.3-.2-.4-.2-.7-.4-1.5-.8-1.5-1.5 0-.6.2-.7.4-.9l.1-.2c0 .4-.1.7-.1.8 0 0 .6-.8.8-2.2.1-.6-.1-1.7-.3-2.2v.7s0-.1-.1-.1c-.2-.2-.6-.9-.5-1.3 0-.2.2-.3.3-.4.2-.1.4-.1.8-.1.6 0 1.3.2 1.7.3 1.3.4 2.8 1.5 3.2 1.9l.3.2-.2-.3s-1-1.6-2.7-2.3c.1-.1.4-.4 1.1-.8 1.1-.5 2.3-.8 3.7-.8 1.4 0 2.7.3 3.7.8.7.3 1 .6 1.1.8-1.7.8-2.7 2.3-2.7 2.3l-.2.3.3-.2c.4-.3 2-1.5 3.2-1.9.4-.1 1-.3 1.7-.3.3 0 .6 0 .8.1.2.1.3.2.3.4.1.5-.3 1.1-.5 1.3 0 0 0 .1-.1.1v-.7c-.2.4-.3 1.6-.3 2.2.2 1.5.8 2.2.8 2.2 0-.1-.1-.4-.1-.7l.1.1c.2.2.4.4.4.9 0 .7-.8 1.1-1.5 1.5-.1.1-.3.2-.4.2-.4.3-.9.8-1 1.7 0 .7 0 2.5.2 3.8-.6.2-1.3.3-2 .3-.1-.2-.2-.4-.3-.7 0-.1-1-2.6-1.3-3.1.3 2 .9 3.7 1.2 4.5h-.6H-112.7c.3-.8.9-2.5 1.2-4.5-.3.6-1.3 3-1.3 3.1-.1.2-.2.5-.3.7-.6 0-1.4-.1-2-.3.1-1.3.2-3.1.2-3.8.1-.9-.4-1.4-.8-1.7zm2 7.1c-.4.5-.5 1-.3 1.7-1.1 0-2.3-.5-2.9-1.5-.6-1-.4-2.7-.2-3 .5 1.7 2.4 2.2 3.7 2.3-.1.2-.2.4-.3.5zm9 1.6c-.3.9-1.2 3.2-4.3 3.2-3 0-3.9-2.3-4.3-3.2-.2-.5-.2-.9 0-1.2.1-.2.5-.4 1.2-.4h6c.8 0 1.1.2 1.2.4.3.3.3.7.2 1.2zm3.6-1.4c-.6 1-1.8 1.5-2.9 1.5.2-.7.2-1.2-.2-1.6l-.1-.1c-.1-.1-.2-.3-.3-.5 1.4-.1 3.2-.6 3.7-2.3.2.2.4 2-.2 3z"/></svg>