<svg xmlns="http://www.w3.org/2000/svg" viewBox="-116.1 3103.7 14.2 31.6"><path d="M-102.8 3103.7s-.9.9-1.9 2l-1.9 2-.8 2.9h-2.1c-3.9.1-6.2.4-6.6.9-.1.1-.1.1.1.3 1 .9 9.1 1.1 12.8.4 1.3-.3 1.7-.6.9-.9-.5-.2-2.5-.6-3.4-.6-.2 0-.3 0-.3-.1s.1-.6.3-1.3l.3-1.2 1.8-1.9c1-1 1.8-1.9 1.8-1.9 0-.1-.8-.7-1-.6zm-13.2 8.7c0 .2.8 7.3.8 7.4 0 .1.1 0 .1-.2.6-1.6 1.7-2.9 2.6-3.1.5-.1.8 0 1.2.4.4.4.5.8.2 1-.2.1-.3 0-.5-.4-.4-.8-1.2-.4-2.1 1.1-.9 1.5-1.2 3.2-.5 3.2.3 0 .9-.5 1.3-1 .3-.4.4-.6.6-1.1.1-.3.2-.6.3-.7.1 0 .2-.1.3-.1.2 0 .2 0 .2.3 0 .2 0 .5-.2.8-.2.5-.4 1.2-.8 2.5-.1.3-.2.6-.3.7-.1.2-.3.2-.4 0-.1-.1 0-.3.1-.9l.2-.8c0-.1-.1 0-.4.3-.6.6-1.2.8-1.6.6-.1-.1-.1 0-.1.1 0 .5.4 4.7.5 4.8.2.2 1.5.6 2.9.8 1 .2 4 .2 5 0 .9-.1 1.9-.4 2.3-.5.7-.2.6 0 1-3.2.2-1.6.3-2.9.3-2.9s-.2.1-.4.3c-.5.4-.8.6-1.2.6-.3 0-.5-.1-.6-.3-.1-.2 0-.5.5-1.1.5-.7.6-.8.6-.9 0-.3-.6 0-1 .5-.1.2-.3.4-.4.5-.2.3-.8 1.6-1 2.4-.2.6-.4.9-.6.9-.1 0-.3-.1-.3-.2 0-.2.2-.7.6-1.5.2-.5.4-.9.4-1s-.1.1-.3.2c-.4.3-.8.5-1 .5-.2 0-.5-.1-.5-.3 0-.1 0-.1-.4.1-.6.3-.9.2-.9-.3v-.3l-.3.3c-.5.5-1.1.6-1.5.4-.2-.2-.2-.6 0-1.3.4-1.3.8-1.8 1.1-1.6.2.1.1.3-.1.9-.5 1-.5 1.5-.1 1.4.4-.1.9-.8 1.3-1.7.1-.2.2-.5.3-.6.1-.2.3-.1.4.1 0 .1 0 .3-.2.9-.2.5-.3.8-.3 1 0 .3 0 .3.2.3s.6-.3.6-.4c.2-.6 1.6-4.2 1.8-4.3.1-.1.2-.1.3-.1.1 0 .2.1.2.2s-.1.4-.3.8c-.6 1.4-1.4 3.5-1.4 3.6 0 .1 0 .2.1.2s.6-.3 1-.6.5-.5.6-.7c.2-.7.4-.9.7-.8.1.1.1.1.1.3v.2s.2-.1.3-.3c.5-.4.9-.5 1.3-.3.2.1.2.2.2.4 0 .3-.3.8-.8 1.4-.2.2-.3.4-.3.5l.1.1c.1 0 1.2-.8 1.4-1.1.1-.1.2-1.2.5-4.3.2-2.3.4-4.2.4-4.2s-.2 0-.4.1c-.5.2-1.5.4-2.8.5-1.4.1-6 .2-7.4 0-1.3-.1-2.5-.3-3-.5l-.5-.1v.1zm1.9 15.5l.4.8.4.8.2 2.5.2 2.5.2.2c.5.4 1.6.6 3.3.7 2 0 3.5-.2 4-.7l.2-.2.1-2.5.1-2.5.4-.7c.2-.4.4-.7.4-.8 0 0-.2 0-.4.1-.8.3-2.5.5-4 .6-1.6.1-4.1-.2-5.4-.7 0-.1-.1-.1-.1-.1z"/></svg>