<svg xmlns="http://www.w3.org/2000/svg" viewBox="-242.9 6206.4 17.4 32"><path d="M-242.9 6234.7c-.2 1.8.8 3.2 2.5 3.6 1.4.4 3-.3 3.7-1.5.2-.4 2.5-6.3 5.1-13.2 4.4-11.6 4.8-12.6 5.4-13.2.4-.4.7-.8.7-.9 0-.1-.3-.5-.7-.8-1.6-1.4-5.2-2.6-6.8-2.2-.3.1-.3.3-.3 1.1 0 1-.2 1.6-1.2 4.2-.3.7-.8 2-1.1 2.9-.3.8-.7 2-1 2.6s-.8 2-1.2 3.1-1.2 3.2-1.8 4.7c-.6 1.5-1.2 2.9-1.4 3.1l-1.9 6.5zm13.8-27.2c1.7.7 2.6 1.6 1.9 1.9-.7.3-3.7-.8-4.5-1.6-.3-.3-.3-.4-.2-.6.3-.4 1.4-.3 2.8.3zm-2.8 2.2c.6.6 1.9 1.1 3.2 1.2.7 0 1.2.1 1.2.1s-.1.2-.3.4c-.1.2-.7 1.6-1.3 3-.9 2.3-1.1 2.8-1.7 3.3-.9.8-2.4 1.7-3.5 1.9-.5.1-1.2.3-1.6.5-.4.2-.8.3-.9.3-.2 0 .3-1.4 2-5.6.5-1.4 1.2-3.2 1.5-4 .3-.8.7-1.6.7-1.6.3.1.5.3.7.5zm1.5 8.5c-.1.1-1.6 4.2-3.5 9.1-3 8-3.5 9.1-4 9.5-.3.3-.7.6-.9.5-.2 0-.1-.1.2-.2.3-.1.5-.3.5-.5s.1-.4.2-.4c.1-.1.2-.3.3-.6.1-.3.2-.7.2-.8.3-.5 1-2.5 1-2.6s.1-.4.2-.7c.1-.3.6-1.4 1-2.4s.9-2.3 1.1-2.8.4-1 .5-1.1c.1-.1.1-.3.1-.5s.1-.6.3-.9c.5-1.2.7-1.7 1-2.5.2-.5.4-1 .4-1.1.2-.3.2-.8.1-.8s-.3.1-.6.3c-.4.2-.4.2.1-.1.3-.2.8-.6 1.1-1 .4-.4.9-.7.7-.4zm-4.7 2.5c0 .1-.1.2-.3.2-.3 0-.8 1.1-.8 1.8 0 .3-.1.6-.1.6-.3 0-.9 1.4-1 2.3-.1.8-.1.9.2 1.1.5.2.6.8.3 1.2s-1 .5-1.2.2c-.3-.4-.4-.1-.3.5.1.6.1.7-.3.8-.3.1-.5.5-.7 1-.6 1.6-1.1 3-1.5 3.9-.2.5-.4 1.2-.4 1.7-.1.7 0 .9.3 1.3l.4.5-.5-.4c-.6-.4-1.2-1.6-1.2-2.2 0-.2.5-1.7 1.1-3.3.6-1.6 1.1-3.1 1.1-3.2s.6-.8 1.2-1.4c.7-.7 1.1-1.2 1-1.2-.1 0-.5.2-.8.5-.3.3-.6.5-.6.3 0-.5 1.6-4.2 2-4.7.4-.4 1.8-1.5 2-1.5.1-.2.1-.2.1 0z"/></svg>