<svg xmlns="http://www.w3.org/2000/svg" width="32" height="32" viewBox="0 0 32 32"><path fill="#444" d="M12.307 25.27c-.085 1.014.426 1.772 1.384 2.028.788.21 1.697-.16 2.086-.863.114-.2 1.403-3.507 2.862-7.354 2.455-6.462 2.682-7.022 3.023-7.372.21-.218.38-.436.38-.493s-.18-.265-.398-.455c-.872-.787-2.92-1.44-3.79-1.213-.143.038-.172.152-.172.588 0 .55-.095.89-.663 2.33-.16.418-.427 1.138-.587 1.612-.152.464-.408 1.128-.56 1.47-.14.34-.454 1.127-.69 1.752l-.996 2.643c-.313.824-.663 1.61-.787 1.734zm7.696-15.154c.957.398 1.45.88 1.052 1.033-.38.14-2.075-.465-2.52-.91-.172-.172-.18-.228-.086-.352.16-.18.786-.095 1.553.227zM18.43 11.32c.34.36 1.033.616 1.79.644.38.02.683.038.683.057 0 .01-.066.124-.142.238s-.388.88-.7 1.696c-.493 1.29-.616 1.535-.957 1.848-.52.474-1.346.938-1.943 1.08-.256.066-.654.19-.88.294-.228.095-.456.17-.494.17-.085 0 .18-.776 1.09-3.127.294-.76.683-1.773.862-2.257.19-.474.37-.872.408-.872s.17.105.284.228zm.834 4.776c-.028.038-.91 2.33-1.952 5.09-1.687 4.453-1.943 5.06-2.237 5.325-.18.172-.407.314-.493.304-.114 0-.076-.038.095-.104.152-.057.256-.16.256-.265 0-.095.038-.2.085-.237.047-.028.123-.19.16-.35.03-.172.096-.37.134-.456.142-.265.57-1.374.57-1.45 0-.047.056-.218.132-.38.076-.17.313-.776.53-1.345.22-.578.484-1.28.59-1.564.113-.284.236-.56.283-.607.038-.057.076-.18.076-.275s.067-.32.142-.5c.284-.646.408-.95.57-1.413.084-.265.198-.55.245-.635.095-.18.114-.455.038-.455-.028 0-.17.066-.313.152-.228.132-.228.132.028-.067.16-.123.436-.36.616-.53.302-.285.55-.418.444-.238zm-2.625 1.346c0 .047-.067.095-.153.095-.18 0-.445.616-.445 1.014.01.172-.028.314-.076.314-.152 0-.483.777-.53 1.28-.048.435-.03.51.132.606.256.133.322.426.152.663-.142.21-.54.265-.644.104-.142-.228-.246-.076-.19.265.047.322.03.38-.17.464-.152.076-.294.275-.398.57-.332.9-.635 1.695-.815 2.16-.104.256-.218.683-.246.93-.047.388-.02.482.17.7l.228.256-.303-.208c-.313-.218-.692-.89-.692-1.232 0-.114.275-.948.616-1.867.34-.91.616-1.715.616-1.772 0-.066.313-.427.682-.806.38-.38.625-.692.55-.692s-.275.133-.445.303-.314.256-.314.19c0-.285.89-2.37 1.118-2.616.208-.227 1.023-.815 1.128-.815.02 0 .03.038.03.095z"/></svg>