<?xml version="1.0" encoding="UTF-8"?><!DOCTYPE svg PUBLIC "-//W3C//DTD SVG 1.1//EN" "http://www.w3.org/Graphics/SVG/1.1/DTD/svg11.dtd"><svg xmlns="http://www.w3.org/2000/svg"><symbol id="icon-bower" viewBox="0 0 32 32"><path d="M13.43 10.26c-.652 0-1.182.53-1.182 1.18s.53 1.183 1.182 1.183c.653 0 1.18-.53 1.18-1.182s-.528-1.18-1.18-1.18zm0 1.086c-.38 0-.688-.192-.688-.428s.308-.428.688-.428c.38 0 .688.192.688.428s-.308.428-.688.428zm13.464 4.71c-1.165-1.12-6.992-1.82-8.83-2.023.09-.21.165-.428.228-.652.25-.11.52-.21.8-.296.035.1.196.486.287.67 3.696.1 3.886-2.748 4.036-3.53.147-.762.14-1.5 1.408-2.848-1.89-.55-4.606.853-5.516 2.943-.342-.13-.685-.224-1.024-.282-.243-.98-1.508-3.71-4.827-3.71-2.15 0-4.318.888-5.948 2.436-.88.834-1.57 1.824-2.052 2.944-.52 1.21-.785 2.54-.785 3.957 0 4.934 3.368 9.257 5.27 9.257.832 0 1.547-.622 1.715-1.18.14.383.572 1.572.714 1.874.21.448 1.18.835 1.603.37.545.303 1.546.485 2.09-.323 1.05.222 1.98-.404 2-1.152.515-.026.768-.75.656-1.326-.082-.424-.968-1.947-1.314-2.472.684.557 2.418.714 2.628 0 1.103.866 2.823.412 2.96-.293 1.34.347 2.877-.418 2.625-1.344 2.153-.15 1.877-2.44 1.273-3.02zm-5.61-3.8c-.566-.222-1.286-.363-1.79-.363-.715 0-1.15.405-1.824.405-.14 0-.478 0-.75-.096.18.187.4.288.83.288.255 0 .763-.13 1.174-.254.006.087.015.172.027.258-.77.184-1.577.674-1.81.8-.52-1.148-.074-2.234.34-2.735 1.85.003 3.347 1.275 3.804 1.697zm.802-.085l-.283-.264c-.29-.273-.594-.52-.906-.738.464-.92 1.047-1.925 1.783-2.547-.81.328-1.61 1.304-2.084 2.347-.24-.153-.486-.29-.733-.41.66-1.408 2.193-2.584 3.883-2.676-1.132 1.028-.707 3.076-1.66 4.29zm-2.325.96c-.124-.27-.25-.72-.235-.983.21-.005.614.074.678.09-.025.123-.038.395-.038.43.04-.07.15-.306.196-.4.405.077.936.206 1.247.35-.366.238-.987.495-1.847.513zM17.24 9.956c-1.477 1.497-.894 3.39-.356 4.246-.765 1.274-2.27 2.144-4.016 2.54 1.96 0 3.115-.505 3.786-1 .428-.315.66-.626.78-.8 2.907.19 7.51 1.126 7.96 1.43.18.12.366.39.394.648-2.185-.306-6.124-.628-7.155-.682.733.104 6.073 1.115 7 1.352-.283.46-.925.784-1.892.558.523.712-.492 1.566-1.906 1.096.31.7-.947 1.328-2.378.6.018.7-1.775.78-2.483.007.015.09.1.267.135.345-.228 2.042-1.9 3.31-3.614 3.31-4.193 0-7.847-3.408-7.847-7.94 0-4.79 3.54-8.367 7.814-8.367 2.448 0 3.554 1.927 3.78 2.657z"/></symbol><symbol id="icon-grunt" viewBox="0 0 32 32"><path d="M15.997 12.86v.002H16.006c.64-.008 1.365-.894 1.365-.894-.5.302-.944.406-1.37.416-.424-.01-.87-.114-1.368-.416 0 0 .726.886 1.365.893zM14.39 24.43h-1.474c-.274 0-.41.08-.475.145-.094.096-.108.23-.043.395.174.445.57.81.687.91.153.132.373.21.59.21.22 0 .417-.08.552-.223.377-.403.6-.836.653-.97.03-.075.065-.22-.045-.333-.086-.088-.236-.133-.444-.133zM9.448 12.944c-.057.503.262.96.262.96.032-.374.11-.64.2-.83.023.516.16 1.18.64 1.71.346.383 1.785 1.172 2.75.307.05.122.105.267.15.424.145.514-.134 1.266-.134 1.266s.755-.855.696-1.63c.542-.024 1.074-.422 1.06-.978 0 0-.946.522-1.78-.44-.488-.56-2.05-2.105-4.17-1.592.22.048.447.12.68.207-.002 0-.004 0-.006.002-.205.09-.32.344-.35.592zm1.422-.09c.978.55 1.876 1.286 2.25 1.855v.002c-.287.167-1.086.523-1.902-.083-.52-.388-.498-1.32-.35-1.774zm8.215 11.58H17.61c-.21 0-.358.044-.444.132-.11.114-.075.258-.045.334.055.132.278.566.654.968.135.144.33.224.553.224.216 0 .436-.078.59-.21.116-.102.512-.465.686-.91.065-.167.05-.3-.044-.396-.066-.066-.2-.144-.475-.144zM17.99 15.15c-.06.775.695 1.63.695 1.63s-.28-.752-.133-1.266c.045-.157.098-.302.148-.424.966.865 2.405.076 2.75-.306.48-.532.62-1.196.64-1.712.09.19.17.456.202.83 0 0 .32-.457.262-.96-.028-.248-.143-.503-.348-.593l-.006-.003c.233-.088.46-.16.68-.207-2.12-.514-3.68 1.032-4.17 1.593-.834.96-1.78.44-1.78.44-.014.555.518.954 1.06.977zm.89-.44c.374-.57 1.273-1.307 2.25-1.857.15.455.173 1.387-.348 1.774-.816.606-1.616.25-1.903.083zm5.003 4.648c-.12.896-.653 1.697-1.232 2.193-.153-1.138-.185-2.782-.185-3.127 0-.737.476-1.23.61-1.307.128-.074.27-.15.418-.23.902-.482 2.026-1.083 2.026-2.192 0-.81-.467-1.162-.775-1.394l-.108-.083c-.104-.084-.187-.15-.217-.218-.218-.492-.178-1.718-.084-1.887.028-.032.84-1.05.59-1.963-.102-.373-.346-.667-.707-.852-.267-.136-.596-.212-.98-.226-.005-.1-.025-.197-.046-.294-.028-.13-.058-.266-.046-.404.02-.233.038-.453.108-.564.424-.668 1.446-.882 1.456-.884l.615-.12-.407-.476c-.007-.01-.866-.876-2.32-.876-.398 0-.804.066-1.208.196-1.215.392-2.15 1.53-2.474 1.968-.157-.05-.318-.094-.48-.134-.21-.792.45-1.93.45-1.93s-.68-.15-1.688.765c-.13-.327-.405-1.03-.088-1.868-1.477.522-1.85 1.318-1.96 2.04-.38-.272-.34-1.156-.36-1.383-.378.044-1.462 1.096-1.413 2.42-.1.028-.198.056-.295.087-.325-.44-1.26-1.577-2.474-1.97-.403-.13-.81-.196-1.206-.196-1.454 0-2.313.868-2.32.877l-.408.476.615.12c.01.002 1.034.216 1.457.884.07.11.09.33.108.564.012.14-.018.275-.046.405-.022.097-.043.195-.048.295-.384.014-.713.09-.98.226-.36.185-.605.48-.706.852-.25.913.562 1.93.59 1.963.095.17.135 1.396-.084 1.887-.03.068-.112.134-.217.218l-.108.083c-.308.233-.774.584-.774 1.394 0 1.108 1.123 1.71 2.026 2.193.147.08.288.155.416.23.135.077.61.57.61 1.306 0 .346-.03 1.99-.185 3.13-.578-.497-1.112-1.298-1.232-2.194 0 0-1.465 1.13-1.035 3.55.39 2.2 2.183 2.964 4.263 3.126.697 1.625 1.803 3.083 4.65 3.085h.01c2.848-.002 3.954-1.46 4.65-3.085 2.08-.16 3.872-.926 4.264-3.125.43-2.42-1.036-3.55-1.036-3.55zM21.7 5.342c.284-.09.58-.138.886-.138.552 0 1 .15 1.238.25-.154.07-.32.16-.486.268-.12-.02-.278-.04-.46-.04-.528 0-1.026.156-1.442.448-.618.434-.904.848-1.035 1.12-.11-.062-.226-.125-.353-.187-.078-.038-.158-.075-.238-.11.307-.45.997-1.324 1.89-1.612zm1.052.914c-.04.052-.08.105-.114.162-.166.262-.193.583-.22.893-.026.323-.053.63-.218.85-.21.04-.405.088-.575.135-.113-.157-.282-.35-.527-.56.072-.24.277-.808.68-1.128.274-.22.603-.336.975-.35zm-14.09-.533c-.164-.11-.33-.198-.485-.268.238-.1.686-.25 1.238-.25.305 0 .603.045.886.136.895.29 1.585 1.162 1.893 1.613l-.24.11c-.125.063-.243.125-.353.188-.132-.272-.418-.686-1.035-1.12-.416-.292-.915-.447-1.44-.447-.183 0-.34.018-.46.04zm2.24 2.013c-.244.208-.412.402-.526.56-.17-.047-.366-.095-.575-.134L9.25 6.257c.372.015.7.132.976.35l.68 1.13zM9.29 16.483c-.136-.078-.278-.155-.422-.233-.745-.402-1.515-.82-1.515-1.53 0-.555.216-.73.445-.913l.14-.16c-.048.384-.1.715-.14.797 0 0 .607-.754.788-2.223.07-.577-.055-1.718-.256-2.157.008.244 0 .49-.016.72-.02-.04-.04-.078-.065-.108-.162-.2-.594-.878-.47-1.333.047-.174.157-.302.335-.393.188-.098.443-.146.756-.146.616 0 1.3.187 1.65.3 1.26.398 2.777 1.547 3.212 1.89l.02.016.28.194-.175-.29c-.01-.018-.958-1.574-2.665-2.332.1-.145.368-.408 1.082-.755 1.075-.524 2.33-.79 3.726-.79s2.65.266 3.726.79c.713.348.98.61 1.082.756-1.707.758-2.654 2.314-2.664 2.33l-.174.292.28-.194.02-.015c.435-.343 1.953-1.492 3.21-1.89.353-.112 1.036-.3 1.65-.3.315 0 .57.05.757.145.178.09.287.22.335.393.124.455-.308 1.132-.47 1.333-.023.03-.044.067-.064.108-.017-.232-.025-.476-.016-.72-.2.438-.327 1.578-.256 2.157.18 1.47.788 2.224.788 2.224-.04-.08-.088-.386-.135-.748.036.032.073.062.11.09l.024.02c.23.185.445.36.445.915 0 .712-.77 1.128-1.516 1.53-.144.078-.286.155-.422.233-.435.25-.903.838-.956 1.714-.044.733.044 2.502.17 3.803-.623.24-1.338.32-1.99.34-.1-.207-.196-.428-.274-.66-.034-.097-.982-2.56-1.323-3.12.273 1.956.877 3.694 1.177 4.493-.173-.024-.367-.037-.587-.037 0 0-2.082 0-2.926-.002H16h-.004l-2.926.002c-.22 0-.414.014-.587.037.3-.8.905-2.537 1.178-4.492-.34.562-1.288 3.023-1.322 3.12-.08.23-.174.453-.275.66-.65-.02-1.365-.098-1.99-.34.128-1.3.216-3.07.172-3.803-.052-.876-.52-1.463-.956-1.714zm2.02 7.072c-.027.025-.05.05-.073.073-.362.39-.43.93-.205 1.598-1.13-.018-2.313-.502-2.914-1.49-.61-1-.438-2.71-.188-2.96.547 1.725 2.367 2.218 3.73 2.277-.135.21-.26.38-.35.502zm8.945 1.625c-.33.947-1.22 3.24-4.255 3.245-3.036-.004-3.925-2.297-4.255-3.245-.183-.526-.17-.915.043-1.156.145-.165.477-.362 1.235-.362H18.978c.76 0 1.09.197 1.237.362.21.242.226.63.043 1.156zm3.628-1.444c-.6.988-1.783 1.472-2.914 1.49.225-.67.156-1.207-.206-1.598-.023-.025-.047-.05-.073-.074-.09-.12-.214-.292-.348-.5 1.363-.06 3.183-.553 3.73-2.278.25.25.42 1.96-.19 2.96z"/></symbol><symbol id="icon-gulp" viewBox="0 0 32 32"><path d="M22.21.517c-.03.025-.905.93-1.937 2.02L18.398 4.51l-.75 2.926-2.094.037c-3.894.08-6.194.394-6.62.9-.08.094-.068.125.076.25 1.02.875 9.062 1.13 12.78.412 1.32-.256 1.657-.575.94-.88-.545-.238-2.54-.564-3.432-.564-.244 0-.3-.018-.3-.11 0-.057.137-.632.3-1.27l.294-1.162 1.75-1.85c.963-1.02 1.756-1.9 1.77-1.95.062-.28-.682-.88-.9-.73zM9 9.18c0 .188.756 7.3.794 7.412.012.05.075-.044.137-.225.555-1.556 1.66-2.875 2.6-3.094.455-.106.8.006 1.168.375.406.406.48.844.17 1.012-.157.08-.307-.03-.507-.394-.43-.77-1.23-.363-2.093 1.075-.912 1.513-1.15 3.19-.456 3.19.257 0 .876-.49 1.307-1.026.294-.375.406-.58.57-1.063.105-.324.23-.624.28-.66s.162-.064.262-.05c.16.018.174.043.193.312.012.206-.037.456-.175.844-.18.512-.387 1.17-.775 2.456-.087.294-.2.594-.256.67-.137.193-.33.18-.42-.02-.062-.13-.043-.27.132-.856.112-.387.224-.756.243-.825.02-.08-.125.026-.394.276-.626.58-1.24.825-1.6.63-.107-.055-.12-.043-.12.107 0 .475.45 4.738.506 4.806.188.224 1.52.605 2.87.818 1.03.162 3.968.162 5 0 .886-.144 1.855-.37 2.324-.544.662-.244.58.025.956-3.22.18-1.58.325-2.886.313-2.893-.013-.01-.214.138-.445.332-.5.425-.83.588-1.2.594-.33 0-.5-.08-.575-.287-.088-.22.03-.476.506-1.064.53-.656.62-.78.62-.913 0-.28-.645.012-1.013.463-.12.15-.294.394-.387.544-.212.33-.762 1.587-1.037 2.37-.214.605-.413.886-.62.886-.12 0-.32-.15-.32-.238 0-.163.2-.67.57-1.475.238-.512.43-.944.43-.956s-.118.07-.268.188c-.356.294-.75.48-.994.48-.238 0-.488-.15-.488-.286 0-.114.012-.12-.38.1-.595.324-.932.205-.932-.34v-.25l-.256.27c-.47.48-1.106.65-1.456.375-.225-.175-.22-.588.02-1.3.43-1.275.76-1.775 1.055-1.587.182.113.15.294-.136.887-.494 1.02-.525 1.5-.087 1.375.42-.12.92-.775 1.27-1.65.093-.244.21-.488.268-.55.137-.156.344-.113.413.087.044.13 0 .306-.244.906-.2.488-.306.838-.306 1.025-.006.27 0 .28.175.27.225-.02.587-.257.637-.426.194-.63 1.637-4.156 1.75-4.28.125-.126.175-.145.32-.09.105.038.18.114.193.195.012.075-.106.425-.262.78-.612 1.42-1.41 3.47-1.41 3.626 0 .1.03.175.062.175.15 0 .563-.262 1.012-.644.4-.35.494-.463.58-.744.24-.725.413-.93.67-.794.1.056.12.113.094.28-.02.12-.02.214 0 .214s.162-.113.313-.256c.476-.43.882-.538 1.257-.306.175.106.2.156.2.394 0 .325-.25.77-.775 1.387-.194.224-.35.437-.35.474 0 .03.063.056.144.056.137 0 1.188-.806 1.42-1.088.068-.087.212-1.238.543-4.28.243-2.288.443-4.17.43-4.176-.006-.012-.17.037-.363.106-.488.17-1.544.35-2.813.48-1.375.138-6.03.157-7.394.032-1.27-.12-2.494-.313-3.013-.48L9 9.038v.136zm1.875 15.506c0 .012.2.363.438.775l.445.757.18 2.512.19 2.518.187.162c.47.4 1.594.625 3.344.663 1.988.044 3.537-.206 4.044-.663l.2-.175.144-2.537.144-2.53.406-.714c.225-.387.406-.725.406-.75 0-.02-.188.025-.425.106-.844.287-2.488.544-3.95.625-1.625.088-4.144-.22-5.42-.662-.18-.063-.33-.1-.33-.088z"/></symbol><symbol id="icon-jekyll" viewBox="0 0 32 32"><path fill="#444" d="M12.307 25.27c-.085 1.014.426 1.772 1.384 2.028.788.21 1.697-.16 2.086-.863.114-.2 1.403-3.507 2.862-7.354 2.455-6.462 2.682-7.022 3.023-7.372.21-.218.38-.436.38-.493s-.18-.265-.398-.455c-.872-.787-2.92-1.44-3.79-1.213-.143.038-.172.152-.172.588 0 .55-.095.89-.663 2.33-.16.418-.427 1.138-.587 1.612-.152.464-.408 1.128-.56 1.47-.14.34-.454 1.127-.69 1.752l-.996 2.643c-.313.824-.663 1.61-.787 1.734zm7.696-15.154c.957.398 1.45.88 1.052 1.033-.38.14-2.075-.465-2.52-.91-.172-.172-.18-.228-.086-.352.16-.18.786-.095 1.553.227zM18.43 11.32c.34.36 1.033.616 1.79.644.38.02.683.038.683.057 0 .01-.066.124-.142.238s-.388.88-.7 1.696c-.493 1.29-.616 1.535-.957 1.848-.52.474-1.346.938-1.943 1.08-.256.066-.654.19-.88.294-.228.095-.456.17-.494.17-.085 0 .18-.776 1.09-3.127.294-.76.683-1.773.862-2.257.19-.474.37-.872.408-.872s.17.105.284.228zm.834 4.776c-.028.038-.91 2.33-1.952 5.09-1.687 4.453-1.943 5.06-2.237 5.325-.18.172-.407.314-.493.304-.114 0-.076-.038.095-.104.152-.057.256-.16.256-.265 0-.095.038-.2.085-.237.047-.028.123-.19.16-.35.03-.172.096-.37.134-.456.142-.265.57-1.374.57-1.45 0-.047.056-.218.132-.38.076-.17.313-.776.53-1.345.22-.578.484-1.28.59-1.564.113-.284.236-.56.283-.607.038-.057.076-.18.076-.275s.067-.32.142-.5c.284-.646.408-.95.57-1.413.084-.265.198-.55.245-.635.095-.18.114-.455.038-.455-.028 0-.17.066-.313.152-.228.132-.228.132.028-.067.16-.123.436-.36.616-.53.302-.285.55-.418.444-.238zm-2.625 1.346c0 .047-.067.095-.153.095-.18 0-.445.616-.445 1.014.01.172-.028.314-.076.314-.152 0-.483.777-.53 1.28-.048.435-.03.51.132.606.256.133.322.426.152.663-.142.21-.54.265-.644.104-.142-.228-.246-.076-.19.265.047.322.03.38-.17.464-.152.076-.294.275-.398.57-.332.9-.635 1.695-.815 2.16-.104.256-.218.683-.246.93-.047.388-.02.482.17.7l.228.256-.303-.208c-.313-.218-.692-.89-.692-1.232 0-.114.275-.948.616-1.867.34-.91.616-1.715.616-1.772 0-.066.313-.427.682-.806.38-.38.625-.692.55-.692s-.275.133-.445.303-.314.256-.314.19c0-.285.89-2.37 1.118-2.616.208-.227 1.023-.815 1.128-.815.02 0 .03.038.03.095z"/></symbol><symbol id="icon-markdown" viewBox="0 0 32 32"><path d="M25.674 9.22H6.326c-.9 0-1.63.732-1.63 1.63v10.87c0 .9.73 1.63 1.63 1.63h19.348c.9 0 1.63-.73 1.63-1.63V10.85c0-.898-.73-1.63-1.63-1.63zm-8.26 11.302l-2.827.003v-4.24l-2.12 2.718-2.12-2.717v4.24H7.52v-8.48h2.827l2.12 2.827 2.12-2.826 2.826-.003v8.478zm4.218.707l-3.512-4.944h2.12v-4.24h2.825v4.24h2.12L21.63 21.23z"/></symbol><symbol id="icon-npm" viewBox="0 0 32 32"><path d="M.32 15.406v5.248h8.736v1.76h6.976v-1.76h15.65V10.16H.32v5.247zm8.735 0v3.488h-1.76v-5.216H5.598v5.216H2.016v-6.976h7.04v3.488zm8.724.006l-.02 3.488-3.425-.012v1.766h-3.582v-8.736h7.04l-.013 3.494zm12.203-.006v3.488h-1.76v-5.216h-1.76v5.248l-1.76-.038v-5.21h-1.697v5.216h-3.52v-6.976h10.496v3.488zm-15.648 0v1.728h1.634v-3.457h-1.635v1.728z"/></symbol><symbol id="icon-sass" viewBox="0 0 32 32"><path d="M31.64 21.16c-.108-.91-.577-1.617-1.285-2.17-.82-.642-1.78-.906-2.803-.948-.834-.034-1.65.09-2.437.376-.224.08-.444.177-.67.268-.03-.055-.062-.107-.088-.162-.232-.474-.512-.927-.573-1.47-.044-.386-.098-.772-.006-1.153.088-.366.204-.727.312-1.09.056-.187.017-.29-.16-.375-.063-.03-.13-.055-.198-.065-.438-.063-.87-.027-1.293.096-.15.044-.26.128-.293.294-.02.095-.058.186-.084.28-.11.39-.19.79-.368 1.16-.45.935-.96 1.833-1.485 2.725-.057.096-.116.19-.188.308-.184-.385-.38-.73-.44-1.136-.067-.458-.12-.915-.006-1.37.085-.34.196-.672.298-1.006.05-.158.026-.24-.118-.325-.073-.042-.155-.08-.237-.092-.455-.067-.902-.032-1.34.11-.135.044-.206.132-.248.272-.122.413-.226.836-.397 1.23-.694 1.59-1.407 3.17-2.12 4.752-.15.33-.323.65-.49.97-.044.082-.105.153-.158.23-.043-.05-.06-.085-.06-.12.002-.202-.022-.412.017-.608.117-.595.252-1.187.395-1.776.116-.486.253-.968.384-1.452.044-.162.045-.313-.072-.45-.195-.227-.603-.277-.845-.1-.026.018-.057.03-.107.06.01-.077.014-.125.02-.173.052-.37.062-.74-.04-1.104-.126-.454-.45-.715-.92-.7-.22.006-.45.043-.653.123-.855.334-1.512.927-2.07 1.64-.052.066-.12.125-.19.164-.723.4-1.45.797-2.174 1.195l-.807.44c-.216-.206-.413-.42-.637-.602-.683-.556-1.376-1.098-2.062-1.648-.608-.487-1.198-.995-1.65-1.64-.335-.48-.55-1.005-.57-1.6-.027-.755.187-1.446.572-2.09.493-.823 1.164-1.483 1.903-2.082.78-.633 1.626-1.17 2.502-1.66 1.225-.686 2.486-1.293 3.837-1.694 1.386-.41 2.79-.646 4.24-.482.57.064 1.124.195 1.633.474.39.213.708.492.857.93.146.43.142.864.04 1.3-.206.883-.69 1.612-1.3 2.263-.997 1.066-2.215 1.792-3.587 2.272-.79.277-1.605.45-2.44.52-.683.058-1.35-.002-1.997-.24-.428-.157-.8-.398-1.1-.747-.054-.063-.122-.13-.222-.072-.098.057-.115.15-.082.245.055.157.105.32.19.46.215.35.528.605.872.824.66.42 1.4.56 2.165.594 1.163.05 2.297-.123 3.414-.435 1.596-.444 2.983-1.23 4.096-2.47.927-1.032 1.588-2.198 1.73-3.605.07-.687-.004-1.36-.326-1.986-.35-.68-.903-1.148-1.566-1.495-.964-.506-2.006-.705-3.08-.763H14c-1.303.063-2.562.337-3.786.782-.926.337-1.835.717-2.717 1.157-1.92.96-3.71 2.11-5.18 3.7-.73.793-1.35 1.663-1.707 2.693-.104.302-.168.622-.243.934-.006.026.023.05-.04.077v.44c.063.113.07.225.1.338.188.733.577 1.363 1.06 1.937.686.817 1.517 1.475 2.38 2.095.746.537 1.504 1.062 2.254 1.595.13.09.25.197.39.31-.12.064-.222.12-.326.174-.99.502-1.942 1.065-2.82 1.747-.53.412-1.04.85-1.402 1.42-.58.917-.787 1.895-.354 2.94.127.304.32.568.592.762.088.063.187.126.29.15.264.062.534.103.802.152h.758c.84-.075 1.602-.362 2.29-.838 1.08-.744 1.805-1.74 2.118-3.022.227-.93.236-1.862-.03-2.788-.026-.086-.057-.17-.09-.253s-.07-.164-.116-.268l1.72-.99.025.023c-.03.102-.064.204-.093.308-.204.746-.34 1.505-.29 2.28.05.824.28 1.596.764 2.286.39.558 1.32.578 1.736.02.147-.2.29-.407.397-.63.28-.578.54-1.167.808-1.752l.047-.107c-.02.277-.042.52-.052.764-.016.38.006.758.136 1.12.11.31.3.54.654.58.242.03.436-.082.614-.223.28-.22.505-.49.673-.8.476-.873.964-1.74 1.395-2.635.466-.97.873-1.965 1.306-2.95.025-.053.046-.108.073-.174.102.402.174.795.305 1.168.152.432.34.854.547 1.264.097.194.086.32-.05.482-.563.68-1.117 1.368-1.672 2.056-.123.152-.245.306-.347.472-.062.1-.103.223-.12.34-.033.226.105.442.346.494.22.047.453.065.677.048.773-.057 1.476-.33 2.098-.79.805-.596 1.064-1.41.87-2.374-.054-.262-.147-.517-.238-.77-.04-.113-.043-.193.03-.3.645-.918 1.195-1.894 1.706-2.89.02-.04.04-.08.076-.122.166.863.415 1.694.862 2.448-.228.22-.454.42-.658.64-.45.482-.84 1.008-1.043 1.648-.087.276-.155.556-.116.852.06.458.436.755.886.65.963-.222 1.795-.676 2.403-1.48.41-.54.446-1.145.275-1.778-.046-.172-.102-.34-.162-.54.238-.073.47-.16.71-.216 1.244-.284 2.475-.234 3.674.215.7.262 1.266.702 1.6 1.393.41.845.184 1.646-.612 2.18-.074.05-.16.09-.22.15-.04.04-.06.116-.052.168.005.03.087.07.133.07.263-.003.475-.14.68-.28.51-.354.847-.83.927-1.455.002-.02-.024-.036.04-.053v-.416c-.064-.016-.037-.033-.04-.05zM7.287 22.85c-.083 1.116-.588 2.02-1.414 2.75-.465.413-.997.706-1.618.81-.225.036-.455.045-.674-.048-.31-.133-.38-.41-.387-.704-.01-.47.155-.893.38-1.296.294-.526.725-.927 1.185-1.3.725-.59 1.512-1.09 2.317-1.562.013-.008.03-.012.06-.025.125.46.185.914.15 1.377zm6.29-4.844c-.06.356-.132.712-.236 1.057-.36 1.194-.82 2.352-1.32 3.493-.092.21-.226.404-.343.604-.018.03-.045.058-.07.084-.145.143-.283.135-.356-.052-.084-.217-.136-.45-.18-.68-.03-.153-.024-.315-.033-.473.01-1.124.352-2.146.934-3.096.24-.392.502-.765.9-1.014.123-.076.26-.137.4-.177.21-.06.342.04.307.252zm4.29 5.467l1.543-1.8c.063.668-1.073 2.003-1.543 1.8zm4.927-1.21c-.11.06-.228.107-.34.164-.102.053-.136 0-.14-.088 0-.06.008-.123.024-.18.208-.736.59-1.362 1.162-1.872.007-.008.02-.01.04-.02.27.757-.043 1.59-.748 1.994z"/></symbol></svg>