<svg xmlns="http://www.w3.org/2000/svg" viewBox="-459.5 269.4 25 23.8"><path d="M-456.4 279c.3 0 .5 0 .7.1.2.1.3.2.3.3 0 .1 0 .3-.1.5s-.1.3-.2.4h-.1l-.1-.1c0-.1.1-.2.1-.4s0-.3-.1-.4c-.1-.1-.2-.2-.4-.2s-.4.1-.5.2c-.1.1-.2.3-.2.6 0 .2.1.4.2.6.1.2.2.4.4.6.1.2.3.4.4.6.1.2.2.5.2.7 0 .5-.2.8-.6 1.1s-.9.4-1.5.4c-.4 0-.8-.1-1-.2-.3-.1-.4-.3-.4-.5 0-.1 0-.1.1-.2 0-.1.1-.2.2-.3.1-.1.1-.2.2-.3l.3-.3h.1v.1c-.1.1-.1.2-.2.2 0 .1-.1.2-.1.3 0 .2.1.4.2.6s.4.2.6.2c.3 0 .6-.1.8-.3.2-.2.3-.4.3-.7 0-.2-.1-.5-.2-.7-.1-.2-.2-.4-.4-.6-.1-.2-.2-.4-.4-.6-.1-.2-.2-.4-.2-.7 0-.3.1-.6.4-.8s.6-.2 1.2-.2zm5.3.1c.1 0 .1.1.1.1s-.1.1-.2.1h-.7c-.3 0-.5 0-.8.1-.3.6-.5 1.3-.6 1.9-.2.6-.3 1.1-.3 1.5 0 .4.2.7.5.7s.7-.3 1.1-.9h.1v.1c-.2.4-.5.7-.8.9-.3.3-.7.4-1 .4-.3 0-.6-.1-.7-.2-.2-.2-.2-.4-.2-.7 0-.4.1-.9.3-1.6.2-.7.4-1.3.7-2-.3 0-.6.1-.9.2-.1 0-.1 0 0-.1 0-.1.1-.1.2-.2s.2-.1.3-.2c.1 0 .2-.1.3-.1h.4c.2-.4.3-.7.5-1.1s.4-.7.5-1c.1-.1.2-.2.3-.2.1-.1.3-.1.4-.2.1 0 .2-.1.3-.1.1 0 .1 0 .1.1-.2.3-.4.7-.6 1.1-.2.4-.4.8-.6 1.3h.7c.1.1.4.1.6.1zm11.8-9.7c.2 0 .4 0 .5.1.1.1.2.2.3.4 0 .2.1.3 0 .6 0 .2-.1.4-.2.6h-.1l-.1-.1c0-.2 0-.3-.2-.4-.1-.1-.3-.2-.6-.2-.5 0-1.1.2-1.6.6-.5.4-1.1.9-1.6 1.6-.5.6-1 1.4-1.4 2.2-.4.8-.8 1.7-1.1 2.6-.3.9-.6 1.8-.8 2.7-.2.9-.3 1.7-.3 2.4 0 .4.1.6.3.6.2 0 .3-.1.5-.2s.3-.3.5-.6h.1v.1c-.3.4-.6.7-.9 1s-.7.4-1 .4c-.2 0-.4-.1-.5-.2-.1-.1-.1-.3-.1-.5 0-.6.1-1.4.4-2.3.3-.9.6-1.9 1-2.9s.9-2 1.5-3 1.2-1.9 1.8-2.7c.6-.8 1.2-1.5 1.9-2s1.1-.8 1.7-.8zm-17.3 23.8c-.2 0-.4 0-.5-.1-.1-.1-.2-.2-.3-.4 0-.2-.1-.3 0-.6 0-.2.1-.4.2-.6h.1l.1.1c0 .2 0 .3.2.4.1.1.3.2.6.2.5 0 1.1-.2 1.6-.6.5-.4 1.1-.9 1.6-1.6.5-.6 1-1.4 1.4-2.2s.8-1.7 1.1-2.6c.3-.9.6-1.8.8-2.7.2-.9.3-1.7.3-2.4 0-.4-.1-.6-.3-.6-.2 0-.3.1-.5.2-.1.1-.3.3-.5.6h-.1v-.1c.3-.4.6-.7.9-1 .3-.3.7-.4 1-.4.2 0 .4.1.5.2.1.1.1.3.1.5 0 .6-.1 1.4-.4 2.3-.3.9-.6 1.9-1 2.9s-.9 2-1.5 3-1.2 1.9-1.8 2.7c-.6.8-1.2 1.5-1.9 2s-1.1.8-1.7.8zm13.1-9.3c-.5 0-.8-.3-.8-.9 0-.2 0-.4.1-.7 0-.3.1-.6.2-.8l.3-.9c.1-.3.3-.6.5-.9-.1.1-.3.2-.4.3l-.3.3h-.1v-.1c.2-.2.5-.5.9-.7l1.2-.6h.1v.1c-.4.5-.7 1.1-1 1.8s-.4 1.2-.4 1.8c0 .4.1.6.3.6.2 0 .4-.1.6-.3.2-.2.5-.5.8-.9.3-.4.5-.8.8-1.3.3-.5.5-.9.8-1.4 0-.1.2-.2.3-.2.2-.1.4-.1.6-.1s.3.1.2.2c-.2.3-.3.6-.5.9l-.3.9c-.1.3-.2.6-.2.9 0 .3-.1.6-.1 1s.1.6.3.6.5-.2.7-.6h.1s.1.1 0 .1c-.2.3-.5.6-.7.8-.3.2-.5.3-.7.3-.5 0-.8-.3-.8-1s.1-1.3.3-2c-.5.9-1 1.6-1.6 2.1-.3.5-.8.7-1.2.7zm8.1-4.9c.3 0 .5 0 .7.1.2.1.3.2.3.3 0 .1 0 .3-.1.5s-.1.3-.2.4h-.1l-.1-.1c0-.1.1-.2.1-.4s0-.3-.1-.4-.2-.2-.4-.2-.4.1-.5.2c-.1.1-.2.3-.2.6 0 .2.1.4.2.6.1.2.2.4.4.6.1.2.3.4.4.6.1.2.2.5.2.7 0 .5-.2.8-.6 1.1s-.9.4-1.5.4c-.4 0-.8-.1-1-.2-.3-.1-.4-.3-.4-.5 0-.1 0-.1.1-.2s.1-.2.2-.3c.1-.1.1-.2.2-.3l.3-.3h.1v.1c-.1.1-.1.2-.2.2 0 .1-.1.2-.1.3 0 .2.1.4.2.6s.4.2.6.2c.3 0 .6-.1.8-.3.2-.2.3-.4.3-.7 0-.2-.1-.5-.2-.7-.1-.2-.2-.4-.4-.6-.1-.2-.2-.4-.4-.6-.1-.2-.2-.4-.2-.7 0-.3.1-.6.4-.8s.6-.2 1.2-.2z"/></svg>